<?xml version="1.0" standalone="no"?>
<!DOCTYPE svg PUBLIC "-//W3C//DTD SVG 20010904//EN"
 "http://www.w3.org/TR/2001/REC-SVG-20010904/DTD/svg10.dtd">
<svg version="1.0" xmlns="http://www.w3.org/2000/svg"
 width="1116.000000pt" height="608.000000pt" viewBox="0 0 1116.000000 608.000000"
 preserveAspectRatio="xMidYMid meet">

<g transform="translate(0.000000,608.000000) scale(0.100000,-0.100000)"
fill="#2261AA" stroke="none">
<path d="M1630 5770 c0 -6 13 -8 32 -5 46 8 48 15 5 15 -20 0 -37 -5 -37 -10z"/>
<path d="M1547 5744 c-9 -9 2 -24 17 -24 7 0 21 7 32 15 18 14 17 14 -12 15
-17 0 -34 -3 -37 -6z"/>
<path d="M1426 5680 c-43 -22 -96 -55 -117 -75 -22 -19 -43 -35 -47 -35 -13 0
-84 -73 -109 -113 -13 -21 -33 -47 -44 -58 -24 -24 -89 -159 -118 -246 -12
-34 -21 -87 -21 -117 0 -31 -7 -73 -16 -95 -17 -44 -15 -196 4 -266 6 -22 15
-91 21 -153 5 -63 14 -119 20 -125 6 -6 11 -20 11 -32 0 -11 6 -29 14 -40 7
-11 16 -41 20 -66 7 -48 33 -122 60 -174 9 -16 16 -34 16 -38 0 -5 16 -42 35
-83 19 -40 35 -78 35 -84 0 -11 61 -130 106 -205 13 -22 37 -65 54 -95 51 -92
103 -175 133 -212 15 -19 27 -39 27 -45 0 -13 68 -107 176 -242 19 -24 40 -53
46 -65 6 -11 30 -40 52 -64 23 -24 46 -52 51 -62 6 -10 36 -45 67 -79 32 -33
64 -73 72 -88 8 -16 53 -66 100 -112 48 -46 86 -90 86 -96 0 -14 204 -215 219
-215 5 0 23 -20 40 -46 l31 -45 0 -343 c0 -263 3 -346 13 -360 12 -16 37 -17
329 -14 174 2 320 7 324 11 5 4 11 29 14 55 7 61 27 65 82 14 24 -22 57 -46
73 -55 17 -8 43 -29 59 -46 17 -17 33 -31 38 -31 12 0 98 -62 143 -104 22 -20
43 -36 47 -36 10 0 75 -43 117 -77 35 -29 93 -66 191 -125 30 -18 82 -51 115
-73 33 -23 74 -48 90 -57 17 -8 60 -34 97 -57 37 -22 72 -41 77 -41 5 0 14 -7
21 -15 7 -9 38 -27 69 -41 31 -14 63 -29 71 -34 8 -5 84 -44 167 -86 84 -42
160 -85 169 -95 10 -11 27 -19 40 -19 13 0 58 -18 100 -40 43 -22 85 -40 93
-40 9 0 40 -13 69 -29 29 -17 76 -37 105 -47 29 -9 72 -27 97 -40 25 -13 52
-24 60 -24 15 0 119 -36 175 -60 17 -7 44 -19 61 -26 16 -7 50 -16 75 -20 24
-4 53 -11 64 -17 35 -18 189 -57 226 -57 20 0 42 -7 49 -15 7 -8 27 -15 44
-15 17 0 43 -6 58 -14 34 -18 193 -32 202 -18 10 16 -10 24 -62 24 -26 1 -58
8 -71 17 -13 8 -47 19 -75 22 -96 14 -211 42 -227 55 -8 8 -23 14 -33 14 -9 0
-27 5 -38 11 -12 7 -44 17 -72 24 -54 14 -128 39 -161 55 -11 5 -42 14 -68 20
-26 6 -65 21 -85 34 -21 13 -53 27 -72 31 -33 7 -59 18 -166 66 -23 11 -47 19
-54 19 -12 0 -560 270 -615 303 -11 6 -43 26 -72 44 -28 18 -55 33 -59 33 -4
0 -15 6 -23 14 -9 8 -52 33 -96 55 -44 23 -84 48 -90 55 -5 7 -22 19 -37 27
-75 40 -207 121 -218 134 -7 8 -17 15 -22 15 -5 0 -29 15 -52 33 -24 17 -63
44 -87 59 -86 54 -351 248 -382 280 -10 10 -23 18 -29 18 -6 0 -29 16 -52 35
-102 89 -147 125 -155 125 -4 0 -38 29 -76 65 -37 36 -72 65 -79 65 -6 0 -43
31 -83 69 -40 38 -92 83 -115 99 -48 33 -589 579 -616 621 -9 14 -46 57 -82
94 -36 37 -69 77 -74 88 -6 11 -33 44 -61 72 -28 29 -69 79 -90 112 -21 33
-60 83 -87 112 -26 28 -48 56 -48 62 0 6 -14 30 -30 53 -62 88 -158 234 -173
264 -9 17 -23 36 -31 43 -9 8 -16 21 -16 30 0 9 -19 43 -41 76 -42 64 -179
328 -179 348 -1 7 -9 30 -20 52 -11 22 -19 47 -20 55 0 9 -4 20 -9 25 -16 17
-83 218 -92 280 -5 33 -16 92 -25 130 -23 102 -15 447 13 565 36 155 158 348
286 455 26 22 67 56 90 76 23 20 51 38 61 40 22 5 34 29 14 29 -7 0 -48 -18
-92 -40z"/>
<path d="M2026 5665 c-15 -8 -45 -15 -65 -15 -65 -1 -156 -27 -247 -71 -22
-10 -46 -19 -53 -19 -22 0 -85 -38 -131 -79 -25 -23 -48 -41 -53 -41 -4 0 -27
-19 -50 -42 -37 -37 -64 -75 -116 -168 -21 -37 -51 -109 -51 -122 0 -8 -6 -20
-12 -26 -38 -38 -40 -466 -3 -562 7 -19 16 -48 19 -65 11 -59 42 -163 52 -176
6 -8 21 -50 34 -94 13 -44 36 -102 51 -130 15 -27 30 -65 34 -83 4 -17 22 -50
41 -73 19 -23 37 -53 41 -67 3 -15 21 -52 40 -83 18 -32 33 -64 33 -73 0 -8 5
-18 10 -21 15 -9 100 -140 100 -154 0 -6 4 -11 9 -11 5 0 13 -9 16 -21 4 -12
22 -38 39 -58 18 -20 45 -56 59 -81 14 -25 39 -59 55 -75 16 -17 46 -55 67
-85 57 -82 189 -242 283 -341 45 -48 82 -92 82 -97 0 -13 520 -532 534 -532 6
0 38 -27 71 -61 33 -33 87 -81 120 -107 33 -25 88 -71 122 -101 88 -80 144
-125 158 -131 7 -3 30 -20 52 -38 21 -18 58 -47 82 -65 24 -18 84 -62 135
-100 132 -98 247 -179 278 -197 15 -8 65 -41 112 -73 46 -31 89 -57 95 -57 6
0 20 -9 30 -19 22 -22 128 -88 232 -145 26 -14 67 -38 90 -54 24 -16 98 -56
164 -89 66 -33 147 -76 180 -96 33 -20 66 -37 73 -37 7 0 95 -40 196 -90 101
-49 189 -90 197 -90 8 0 39 -14 69 -31 30 -16 74 -34 98 -40 23 -5 66 -21 95
-35 46 -23 110 -43 232 -75 21 -5 44 -14 50 -18 10 -7 24 -12 162 -51 40 -11
75 -25 78 -30 3 -6 24 -10 45 -10 22 0 78 -9 125 -20 47 -11 102 -20 121 -20
19 0 45 -5 57 -12 39 -22 146 -30 431 -34 184 -3 283 -1 290 6 5 5 24 10 41
10 16 0 43 7 59 15 15 8 37 15 47 15 26 0 170 48 188 63 9 7 32 21 51 31 197
106 312 257 375 491 7 28 17 64 22 80 5 17 6 50 3 75 -6 44 -6 44 -14 15 -12
-40 -73 -155 -97 -181 -10 -11 -19 -25 -19 -31 0 -38 -196 -179 -290 -208 -30
-10 -63 -22 -74 -27 -33 -17 -108 -35 -196 -48 -96 -14 -422 -8 -530 9 -36 6
-94 14 -130 19 -36 4 -75 13 -87 20 -12 7 -37 12 -56 12 -36 0 -228 44 -262
61 -31 14 -215 79 -255 89 -62 15 -152 49 -196 74 -24 13 -58 27 -76 31 -18 4
-57 20 -87 36 -30 16 -60 29 -67 29 -11 0 -120 50 -154 70 -8 5 -40 21 -70 36
-110 52 -175 84 -190 94 -63 39 -153 90 -172 96 -21 6 -50 23 -212 123 -32 20
-70 42 -85 50 -14 7 -45 29 -68 47 -23 19 -44 34 -47 34 -3 0 -27 15 -53 34
-27 18 -57 36 -68 40 -11 3 -35 19 -53 36 -19 17 -46 37 -60 45 -15 9 -52 33
-82 55 -30 22 -60 40 -67 40 -7 0 -16 6 -20 13 -9 14 -75 67 -167 132 -31 22
-56 42 -56 46 0 4 -21 21 -47 38 -26 17 -67 50 -93 74 -25 23 -61 53 -80 66
-42 29 -129 107 -294 264 -68 64 -128 117 -133 117 -14 0 -188 172 -248 245
-27 33 -92 105 -145 161 -104 111 -166 182 -220 254 -19 26 -48 60 -63 77 -16
16 -41 50 -55 75 -15 25 -39 60 -55 79 -32 40 -227 340 -265 409 -43 76 -116
230 -132 274 -10 28 -28 76 -40 106 -12 30 -28 79 -35 109 -8 30 -19 59 -24
64 -6 6 -11 24 -11 39 0 16 -7 44 -15 64 -19 45 -30 296 -17 384 9 63 26 120
43 150 5 8 12 22 15 30 56 157 252 337 395 364 19 4 54 15 79 26 89 36 146 41
425 38 265 -4 390 -16 450 -42 17 -8 62 -17 100 -20 67 -7 140 -24 215 -51 19
-7 71 -23 115 -35 44 -13 94 -28 110 -35 48 -20 163 -55 180 -55 25 0 17 19
-12 27 -16 3 -49 19 -76 35 -26 15 -53 28 -60 28 -7 0 -30 9 -51 19 -21 11
-51 23 -66 26 -16 3 -34 12 -40 20 -6 7 -26 16 -45 19 -20 4 -68 20 -108 36
-39 17 -77 30 -82 30 -6 0 -51 14 -100 31 -50 17 -126 39 -170 50 -139 32
-190 45 -205 52 -15 7 -71 20 -165 38 -27 5 -88 13 -135 18 -47 4 -98 13 -113
19 -45 19 -474 16 -511 -3z"/>
<path d="M4014 5195 c24 -18 59 -20 54 -2 -3 6 -20 13 -39 15 -32 2 -33 1 -15
-13z"/>
<path d="M4180 5130 c0 -5 7 -10 16 -10 8 0 12 5 9 10 -3 6 -10 10 -16 10 -5
0 -9 -4 -9 -10z"/>
<path d="M2457 4053 c-4 -3 -7 -98 -7 -210 l0 -203 36 -53 c20 -28 45 -61 55
-73 11 -11 19 -25 19 -30 0 -6 16 -25 35 -44 19 -19 35 -39 35 -44 0 -5 25
-39 55 -75 30 -36 69 -85 87 -109 48 -63 112 -134 204 -226 44 -45 85 -93 91
-108 7 -14 24 -34 38 -45 52 -35 105 -86 105 -99 0 -7 25 -32 56 -56 30 -24
106 -91 167 -150 62 -59 130 -120 152 -136 22 -17 62 -51 88 -76 27 -25 52
-46 55 -46 4 0 27 -18 52 -40 25 -22 52 -40 62 -40 17 0 248 229 259 258 13
32 177 184 196 180 17 -3 18 -29 23 -408 3 -223 7 -406 8 -407 17 -12 118 -75
157 -96 27 -16 65 -41 84 -55 44 -35 81 -59 108 -71 12 -6 41 -23 65 -38 24
-15 59 -35 78 -45 41 -21 123 -24 139 -4 8 10 10 353 9 1282 l-3 1269 -100 3
-101 3 -149 -155 c-279 -289 -412 -431 -423 -451 -6 -11 -52 -63 -102 -115
-51 -52 -109 -115 -128 -140 -71 -89 -236 -250 -258 -250 -22 0 -53 29 -73 68
-7 13 -66 78 -131 145 -65 67 -132 140 -148 162 -16 22 -46 56 -67 75 -21 19
-51 53 -67 75 -16 22 -78 90 -137 150 -59 61 -116 124 -126 140 -11 17 -58 71
-106 120 -48 50 -102 109 -118 133 l-31 42 -118 0 c-65 0 -122 -3 -125 -7z"/>
<path d="M5157 4053 c-4 -3 -7 -576 -7 -1273 0 -971 3 -1269 12 -1278 17 -17
599 -17 616 0 9 9 12 148 12 564 0 656 -6 630 112 499 30 -33 85 -92 123 -130
39 -39 129 -131 201 -206 133 -139 161 -157 208 -139 27 10 143 124 230 225
98 114 300 315 318 315 9 0 22 -9 28 -19 6 -13 10 -205 10 -555 0 -294 3 -541
6 -550 5 -14 41 -16 295 -16 276 0 290 1 309 20 20 20 20 31 19 1258 -1 680
-4 1248 -8 1262 -7 24 -10 25 -107 28 l-101 3 -44 -51 c-24 -28 -94 -104 -154
-168 -61 -64 -128 -137 -149 -162 -22 -25 -79 -86 -128 -137 -48 -50 -88 -97
-88 -103 0 -6 -64 -78 -142 -160 -79 -81 -181 -189 -227 -239 -47 -52 -91 -91
-102 -91 -20 0 -86 63 -131 124 -16 22 -71 85 -123 140 -52 56 -151 161 -220
234 -69 72 -125 137 -125 142 0 5 -34 45 -76 87 -42 43 -93 101 -113 128 -21
28 -84 96 -141 153 l-103 102 -102 0 c-56 0 -105 -3 -108 -7z"/>
<path d="M7882 4048 c-17 -17 -17 -489 0 -506 8 -8 52 -12 130 -12 113 0 120
-1 144 -25 l24 -24 -2 -711 c-3 -619 -5 -712 -18 -720 -8 -5 -76 -10 -150 -10
-92 0 -140 -4 -148 -12 -9 -9 -12 -81 -12 -263 0 -182 3 -254 12 -263 17 -17
1249 -17 1266 0 9 9 12 81 12 265 0 239 -1 253 -19 263 -11 5 -82 10 -158 10
-95 0 -143 4 -151 12 -9 9 -12 185 -12 729 0 639 2 719 16 733 12 13 41 16
150 16 130 0 134 1 139 23 3 12 4 130 3 262 l-3 240 -605 3 c-463 2 -609 -1
-618 -10z"/>
<path d="M7817 463 c-12 -11 -8 -23 8 -23 8 0 15 7 15 15 0 16 -12 20 -23 8z"/>
<path d="M7786 421 c-4 -7 -5 -15 -2 -18 9 -9 19 4 14 18 -4 11 -6 11 -12 0z"/>
<path d="M7743 380 c-3 -10 -14 -22 -24 -25 -10 -4 -19 -10 -19 -15 0 -4 -11
-11 -25 -14 -13 -3 -29 -15 -35 -26 -6 -11 -19 -20 -29 -20 -10 0 -30 -11 -45
-25 -27 -25 -27 -25 -4 -25 13 0 41 14 62 30 22 17 43 30 48 30 13 0 98 86 98
99 0 19 -22 12 -27 -9z"/>
<path d="M7430 190 c0 -5 -13 -10 -30 -10 -17 0 -39 -9 -50 -20 -11 -11 -30
-20 -42 -20 -13 0 -34 -3 -46 -7 -18 -4 -20 -8 -10 -14 19 -13 49 -11 80 5 15
8 42 17 60 21 18 4 40 13 48 21 9 7 27 17 40 23 23 9 22 10 -12 10 -21 1 -38
-3 -38 -9z"/>
<path d="M6330 107 c0 -24 8 -26 119 -32 57 -3 111 -10 121 -15 11 -6 99 -9
212 -8 l193 2 -187 6 c-157 4 -189 8 -200 21 -9 11 -36 19 -83 23 -38 3 -94 8
-122 12 -45 6 -53 4 -53 -9z"/>
<path d="M7080 103 c-57 -5 -72 -19 -28 -26 47 -7 141 6 146 21 4 12 -18 13
-118 5z"/>
</g>
</svg>
